<?xml version="1.0" encoding="UTF-8"?>
<svg width="64px" height="64px" viewBox="0 0 64 64" version="1.1" xmlns="http://www.w3.org/2000/svg" xmlns:xlink="http://www.w3.org/1999/xlink">
    <!-- Generator: Sketch 52.6 (67491) - http://www.bohemiancoding.com/sketch -->
    <title>rank-icon-special-forces</title>
    <desc>Created with Sketch.</desc>
    <g id="Page-1" stroke="none" stroke-width="1" fill="none" fill-rule="evenodd">
        <path d="M32,64 C14.326888,64 0,49.673112 0,32 C0,14.326888 14.326888,0 32,0 C49.673112,0 64,14.326888 64,32 C64,49.673112 49.673112,64 32,64 Z M26.197269,31.7068414 L20.7065762,40.0212939 L31.6599481,40.1049964 C37.6829019,40.1328972 42.6693474,40.1049964 42.7253749,40.0491947 C42.8654436,39.9375913 31.9961129,23.4202899 31.8000168,23.4202899 C31.7159755,23.4202899 29.194739,27.1590034 26.197269,31.7068414 Z M11.8542347,30.6745101 L16.0562956,34.8596371 L20.5384938,34.8596371 L22.7795929,31.4836347 C24.0121974,29.6142779 25.2448019,27.7449211 25.5249393,27.2985076 L26.0572003,26.489383 L7.65217391,26.489383 L11.8542347,30.6745101 Z M40.2881796,30.6745101 L43.0895535,34.8596371 L47.7118204,34.8596371 L51.9138812,30.6745101 L56.115942,26.489383 L37.4868057,26.489383 L40.2881796,30.6745101 Z" id="rank-icon-special-forces" fill="#000000" fill-rule="nonzero"></path>
    </g>
</svg>