<?xml version="1.0" encoding="UTF-8"?>
<svg width="64px" height="64px" viewBox="0 0 64 64" version="1.1" xmlns="http://www.w3.org/2000/svg" xmlns:xlink="http://www.w3.org/1999/xlink">
    <!-- Generator: Sketch 52.6 (67491) - http://www.bohemiancoding.com/sketch -->
    <title>rank-icon-heavy</title>
    <desc>Created with Sketch.</desc>
    <g id="Page-1" stroke="none" stroke-width="1" fill="none" fill-rule="evenodd">
        <path d="M32,64 C14.326888,64 0,49.673112 0,32 C0,14.326888 14.326888,0 32,0 C49.673112,0 64,14.326888 64,32 C64,49.673112 49.673112,64 32,64 Z M22.8946632,22.817383 L20.2048129,27.5168916 L22.4927316,27.6096451 L24.8115681,27.7023985 L24.8115681,30.7323449 L22.5236494,30.8250983 L20.2357307,30.9178518 L22.9255811,35.5555248 L25.6154314,40.1931978 L31.9845023,40.2859513 L38.3535732,40.3477869 L41.0125057,35.7101139 C42.4656433,33.1748527 43.6714383,31.0106053 43.6714383,30.9178518 C43.6714383,30.8250983 42.7129858,30.7632627 41.5071909,30.7632627 L39.3429435,30.7632627 L39.3429435,27.6714807 L41.5071909,27.6714807 C42.7129858,27.6714807 43.6714383,27.5787273 43.6714383,27.4241382 C43.6714383,27.3004669 42.4965611,25.1980551 41.0743414,22.7246295 L38.4772445,18.2415456 L32.0463379,18.17971 L25.5845136,18.0869565 L22.8946632,22.817383 Z M14.0212489,36.4830594 L17.9168942,40.3477869 L20.4212376,40.3477869 C21.8125395,40.3477869 22.9564989,40.2550334 22.9564989,40.16228 C22.9564989,40.0695265 21.9671286,38.3381286 20.7922515,36.2975525 L18.5970863,32.6183319 L10.1256036,32.6183319 L14.0212489,36.4830594 Z M43.1458353,36.4212238 L40.8888345,40.1931978 L43.4240957,40.2859513 L45.9593569,40.3787047 L49.8240844,36.4830594 L53.7197297,32.6183319 L45.3719184,32.6183319 L43.1458353,36.4212238 Z" id="rank-icon-heavy" fill="#000000" fill-rule="nonzero"></path>
    </g>
</svg>