<?xml version="1.0" encoding="UTF-8"?>
<svg width="64px" height="64px" viewBox="0 0 64 64" version="1.1" xmlns="http://www.w3.org/2000/svg" xmlns:xlink="http://www.w3.org/1999/xlink">
    <!-- Generator: Sketch 52.6 (67491) - http://www.bohemiancoding.com/sketch -->
    <title>rank-icon-operative</title>
    <desc>Created with Sketch.</desc>
    <g id="Page-1" stroke="none" stroke-width="1" fill="none" fill-rule="evenodd">
        <path d="M32,64 C14.326888,64 0,49.673112 0,32 C0,14.326888 14.326888,0 32,0 C49.673112,0 64,14.326888 64,32 C64,49.673112 49.673112,64 32,64 Z M26.4668896,23.4344045 L21.1014493,31.5362319 L21.1014493,38.0289855 L26.4948346,29.7860113 C29.4290598,25.2410838 31.916165,21.5148078 32,21.5148078 C32.083835,21.5148078 34.5709402,25.2128544 37.5331104,29.7295526 L42.8985507,37.9442974 L42.8985507,31.3668557 L37.5890004,23.3497164 C34.6547752,18.9177064 32.16767,15.3043478 32.027945,15.3043478 C31.916165,15.3043478 29.4011148,18.9459357 26.4668896,23.4344045 Z M26.4879289,34.9335219 L21.1014493,43.0247136 L26.5716566,43.1092906 C29.5579432,43.1374829 34.469966,43.1374829 37.4562527,43.1092906 L42.8985507,43.0247136 L37.5957988,34.9899065 C34.6932398,30.5637145 32.2093192,26.9269071 32.0976823,26.8987148 C31.9581362,26.8705225 29.4463063,30.4791376 26.4879289,34.9335219 Z" id="rank-icon-operative" fill="#000000" fill-rule="nonzero"></path>
    </g>
</svg>