<?xml version="1.0" encoding="UTF-8"?>
<svg width="65px" height="64px" viewBox="0 0 65 64" version="1.1" xmlns="http://www.w3.org/2000/svg" xmlns:xlink="http://www.w3.org/1999/xlink">
    <!-- Generator: Sketch 52.6 (67491) - http://www.bohemiancoding.com/sketch -->
    <title>rank-icon-support</title>
    <desc>Created with Sketch.</desc>
    <g id="Page-1" stroke="none" stroke-width="1" fill="none" fill-rule="evenodd">
        <path d="M32.333,64 C14.659888,64 0.333,49.673112 0.333,32 C0.333,14.326888 14.659888,0 32.333,0 C50.006112,0 64.333,14.326888 64.333,32 C64.333,49.673112 50.006112,64 32.333,64 Z M25.8421567,20.2759009 C25.7162856,20.4965442 24.4261059,22.6714557 23.0415228,25.098531 L20.4611634,29.511395 L22.7897804,29.6059564 L25.1183974,29.7005178 L25.1183974,32.8210431 L20.4296957,32.8210431 L23.1988618,37.6436731 L25.9994957,42.4347826 L39.0271637,42.4347826 L41.6704587,37.8643163 C43.1179773,35.3426797 44.3137536,33.1992885 44.3137536,33.0416863 C44.3137536,32.9156044 43.3382519,32.8210431 42.1110078,32.8210431 L39.908262,32.8210431 L39.908262,29.6689973 L42.1110078,29.6689973 C43.3382519,29.6689973 44.3137536,29.5744359 44.3137536,29.4168336 C44.3137536,29.2907518 43.1494451,27.1473607 41.7019265,24.6257241 L39.0900993,20.0552577 L32.6077331,19.9606964 C27.6358212,19.8976555 26.0309635,19.9922168 25.8421567,20.2759009 Z" id="rank-icon-support" fill="#000000" fill-rule="nonzero"></path>
    </g>
</svg>