<?xml version="1.0" encoding="UTF-8"?>
<svg width="65px" height="64px" viewBox="0 0 65 64" version="1.1" xmlns="http://www.w3.org/2000/svg" xmlns:xlink="http://www.w3.org/1999/xlink">
    <!-- Generator: Sketch 52.6 (67491) - http://www.bohemiancoding.com/sketch -->
    <title>rank-icon-corps</title>
    <desc>Created with Sketch.</desc>
    <g id="Page-1" stroke="none" stroke-width="1" fill="none" fill-rule="evenodd">
        <path d="M32.3333354,64 C14.6602234,64 0.333335443,49.673112 0.333335443,32 C0.333335443,14.326888 14.6602234,0 32.3333354,0 C50.0064474,0 64.3333354,14.326888 64.3333354,32 C64.3333354,49.673112 50.0064474,64 32.3333354,64 Z M28.9478568,23.9149894 C27.1546154,26.6048515 23.939148,31.5208065 21.8058091,34.7981098 C19.6415522,38.0754131 17.8792287,40.8271112 17.8792287,40.8889471 C17.8792287,40.9817009 24.3410814,41.0435368 32.2560781,41.0435368 L46.6329275,41.0435368 L45.8908966,39.8686545 C45.4889632,39.2502954 42.2425778,34.2725045 38.6560949,28.8618623 L32.1633242,18.9990344 L28.9478568,23.9149894 Z" id="rank-icon-corps" fill="#000000" fill-rule="nonzero"></path>
    </g>
</svg>