<?xml version="1.0" encoding="UTF-8"?>
<svg width="64px" height="64px" viewBox="0 0 64 64" version="1.1" xmlns="http://www.w3.org/2000/svg" xmlns:xlink="http://www.w3.org/1999/xlink">
    <!-- Generator: Sketch 52.6 (67491) - http://www.bohemiancoding.com/sketch -->
    <title>rank-icon-commander</title>
    <desc>Created with Sketch.</desc>
    <g id="Page-1" stroke="none" stroke-width="1" fill="none" fill-rule="evenodd">
        <path d="M41.8896903,29.3272311 L37.0242011,22.0289972 C34.3034238,17.9478314 32.0154975,14.6086957 31.9536616,14.6086957 C31.9227437,14.6086957 29.6348174,17.9478314 26.9449581,22.0289972 L22.1098781,29.3272311 L10.2028986,29.3272311 L10.3266349,29.4492988 L7.80676353,29.4492988 L12.1661907,33.7778081 L16.4947,38.1063174 L20.5758659,38.1063174 L21.2372518,37.1014493 L21.7441843,37.1014493 L26.8022297,29.4660564 C29.5967298,25.2735317 31.972055,21.8306636 32.083835,21.8306636 C32.195615,21.8584287 34.5429952,25.2735317 37.3095504,29.4660564 L42.3396507,37.1014493 L42.7046435,37.1014493 L43.3623753,38.1063174 L47.3507875,38.1063174 L51.6792967,33.7778081 L56.0387239,29.4492988 L53.6733651,29.4492988 L53.7971014,29.3272311 L41.8896903,29.3272311 Z M32,64 C14.326888,64 0,49.673112 0,32 C0,14.326888 14.326888,0 32,0 C49.673112,0 64,14.326888 64,32 C64,49.673112 49.673112,64 32,64 Z M26.4502713,34.64351 L20.9777989,42.8985955 L26.5430251,42.9913493 C29.6038995,43.0222672 34.5507672,43.0222672 37.5498058,42.9913493 L42.9604423,42.8985955 L37.6425595,34.8599354 C34.7362747,30.4386724 32.2319229,26.7285216 32.1082513,26.6048499 C31.9845796,26.4811782 29.4493099,30.0985752 26.4502713,34.64351 Z" id="rank-icon-commander" fill="#000000" fill-rule="nonzero"></path>
    </g>
</svg>